<svg width="113" height="97" viewBox="0 0 113 97" fill="none" xmlns="http://www.w3.org/2000/svg">
<path d="M100.875 48.1718C100.875 72.7226 80.9727 92.625 56.4219 92.625C31.8711 92.625 11.9688 72.7226 11.9688 48.1718C11.9688 23.621 31.8711 3.71871 56.4219 3.71871C80.9727 3.71871 100.875 23.621 100.875 48.1718ZM20.5982 48.1718C20.5982 67.9567 36.637 83.9955 56.4219 83.9955C76.2068 83.9955 92.2456 67.9567 92.2456 48.1718C92.2456 28.387 76.2068 12.3481 56.4219 12.3481C36.637 12.3481 20.5982 28.387 20.5982 48.1718Z" fill="#D8D8D8"/>
<rect x="0.707275" y="89.6875" width="138.837" height="8.29792" rx="4.14896" transform="rotate(-40.1523 0.707275 89.6875)" fill="#D8D8D8"/>
</svg>
