<svg width="54" height="34" viewBox="0 0 54 34" fill="none" xmlns="http://www.w3.org/2000/svg">
<circle cx="16.5958" cy="16.5958" r="16.5958" fill="#253655"/>
<circle cx="37.3407" cy="16.5957" r="16.5958" fill="#00A2DD"/>
<path d="M44.4533 25.4858L41.0215 24.1078C41.6438 22.7475 42.0884 21.3428 42.364 19.9114L44.4533 25.4858ZM33.6601 24.1078L30.2283 25.4858L32.3176 19.9114C32.5932 21.3428 33.0377 22.7475 33.6601 24.1078V24.1078ZM37.3408 7.70459C37.3408 7.70459 41.7861 9.48272 41.7861 16.5952C41.7861 19.3513 41.1193 21.7073 40.3013 23.5566C40.1592 23.8683 39.93 24.1323 39.6414 24.3168C39.3527 24.5013 39.0169 24.5986 38.6744 24.5968H36.0072C35.6646 24.5986 35.3288 24.5013 35.0402 24.3168C34.7515 24.1323 34.5224 23.8683 34.3802 23.5566C33.5711 21.7073 32.8955 19.3513 32.8955 16.5952C32.8955 9.48272 37.3408 7.70459 37.3408 7.70459ZM37.3408 16.5952C38.3187 16.5952 39.1189 15.7951 39.1189 14.8171C39.1189 13.8391 38.3187 13.039 37.3408 13.039C36.3628 13.039 35.5626 13.8391 35.5626 14.8171C35.5626 15.7951 36.3628 16.5952 37.3408 16.5952Z" fill="white"/>
</svg>
